<?xml version="1.0" standalone="no"?><!DOCTYPE svg PUBLIC "-//W3C//DTD SVG 1.1//EN" "http://www.w3.org/Graphics/SVG/1.1/DTD/svg11.dtd"><svg t="1749633635751" class="icon" viewBox="0 0 1024 1024" version="1.1" xmlns="http://www.w3.org/2000/svg" p-id="8723" xmlns:xlink="http://www.w3.org/1999/xlink" width="200" height="200"><path d="M160 160v704h704V160H160z m64 64h576v576H224V224z m256 96c-64 0-63.04 0.64-83.2 8.64-37.44 15.04-64.32 46.4-73.92 86.72-1.6 7.36-2.24 19.52-2.56 88.96-0.64 86.72 0 99.52 5.44 116.8 13.44 42.56 51.52 73.92 89.28 80.96 12.8 2.24 169.28 2.88 184.96 0.64 28.16-3.84 49.6-15.04 70.08-36.16 15.04-15.04 24.32-31.36 30.4-53.12 4.48-15.04 4.16-122.24 2.24-129.92-1.6-6.72-5.44-13.44-10.56-16-1.6-0.64-11.2-1.6-21.44-2.24-17.28-0.64-19.2-0.96-24.64-4.48-8.32-4.8-10.88-10.56-10.88-24.96 0-28.16-11.84-54.72-35.2-78.4-16.64-16.96-34.88-28.48-56.32-34.88-4.8-1.28-25.6-2.56-63.68-2.56z m-39.36 96h73.376a24.64 24.64 0 0 1 0 49.28H440.64a24.64 24.64 0 0 1 0-49.28z m0 142.72h136.736a24.64 24.64 0 0 1 0 49.28H440.64a24.64 24.64 0 0 1 0-49.28z" p-id="8724" fill="#2c2c2c"></path></svg>